<svg viewBox="0 0 173.93 48" class="LoginPage__criblLogo--IFRSi"><g><path class="LoginPage__criblLogoText--zWs43" fill="#ffffff" d="m 67.691,9.126 c 2.099,0 3.872,0.274 5.32,0.821 1.446,0.547 2.792,1.331 4.037,2.35 l -2.721,3.239 C 73.398,14.756 72.4,14.179 71.335,13.804 70.27,13.429 69.139,13.242 67.94,13.242 c -1.545,0 -2.97,0.39 -4.273,1.169 -1.305,0.78 -2.35,2.047 -3.137,3.801 -0.787,1.754 -1.181,4.093 -1.181,7.017 0,2.864 0.375,5.173 1.125,6.927 0.75,1.754 1.777,3.029 3.082,3.823 1.304,0.795 2.766,1.192 4.386,1.192 1.663,0 3.042,-0.273 4.137,-0.821 1.095,-0.547 2.062,-1.166 2.901,-1.855 l 2.519,3.216 c -1.035,1.005 -2.347,1.87 -3.935,2.597 -1.589,0.727 -3.524,1.091 -5.803,1.091 -2.624,0 -4.982,-0.618 -7.073,-1.856 -2.091,-1.237 -3.741,-3.055 -4.947,-5.454 -1.211,-2.398 -1.814,-5.352 -1.814,-8.86 0,-3.478 0.623,-6.413 1.867,-8.805 1.245,-2.392 2.908,-4.206 4.994,-5.443 2.082,-1.237 4.384,-1.855 6.903,-1.855 z m 32.964,8.085 c -0.563,-0.112 -1.196,-0.169 -1.9,-0.169 -2.069,0 -3.76,0.521 -5.072,1.563 -1.312,1.042 -2.41,2.56 -3.294,4.554 l -0.922,-5.51 h -7.331 v 3.576 h 3.485 V 37.8 h -3.485 v 3.599 H 95.45 v -3.598 h -4.79 v -8.816 c 0.719,-2.369 1.705,-4.198 2.957,-5.488 1.201,-1.237 2.625,-1.864 4.262,-1.914 v 4.816 h 3.598 l 0.854,-8.749 c -0.556,-0.18 -1.114,-0.326 -1.676,-0.439 z m 18.679,0.439 v 20.061 h 7.639 v 3.688 H 107.189 V 37.71 h 7.107 V 21.338 h -6.881 V 17.65 Z M 115.826,6.022 c 0.989,0 1.788,0.301 2.395,0.9 0.608,0.6 0.911,1.35 0.911,2.249 0,0.9 -0.303,1.657 -0.911,2.271 -0.607,0.615 -1.406,0.922 -2.395,0.922 -0.959,0 -1.747,-0.307 -2.362,-0.922 -0.615,-0.614 -0.921,-1.372 -0.921,-2.271 0,-0.899 0.306,-1.649 0.921,-2.249 0.615,-0.599 1.403,-0.9 2.362,-0.9 z m 21.387,14.454 c 0.824,-1.08 1.788,-1.926 2.89,-2.541 1.103,-0.615 2.313,-0.922 3.633,-0.922 2.083,0 3.774,0.514 5.071,1.541 1.297,1.027 2.248,2.474 2.856,4.341 0.607,1.867 0.911,4.059 0.911,6.578 0,2.414 -0.361,4.565 -1.08,6.454 -0.72,1.889 -1.78,3.374 -3.182,4.453 -1.402,1.079 -3.13,1.619 -5.184,1.619 -2.654,0 -4.738,-0.982 -6.252,-2.946 l -0.269,2.339 h -4.431 V 8.106 l 5.038,-0.562 v 12.932 z m 4.656,17.677 c 1.708,0 3.032,-0.698 3.969,-2.092 0.936,-1.395 1.406,-3.583 1.406,-6.567 0,-2.025 -0.188,-3.67 -0.563,-4.937 -0.375,-1.266 -0.926,-2.193 -1.653,-2.777 -0.727,-0.585 -1.616,-0.877 -2.664,-0.877 -1.125,0 -2.114,0.338 -2.968,1.012 -0.855,0.675 -1.582,1.47 -2.182,2.384 v 11.11 c 0.555,0.855 1.226,1.526 2.014,2.013 0.786,0.487 1.666,0.731 2.641,0.731 z M 165.291,7.544 v 26.808 c 0,1.095 0.333,1.871 1.001,2.328 0.667,0.457 1.533,0.686 2.597,0.686 0.689,0 1.341,-0.075 1.956,-0.225 0.615,-0.15 1.215,-0.337 1.8,-0.562 l 1.282,3.508 c -0.705,0.359 -1.571,0.674 -2.597,0.944 -1.028,0.27 -2.201,0.405 -3.52,0.405 -2.385,0 -4.24,-0.671 -5.567,-2.013 -1.326,-1.341 -1.989,-3.182 -1.989,-5.521 V 11.255 h -5.99 V 7.544 Z m 6.815,1.979 -0.513,-0.931 h -0.36 v 0.931 h -0.422 V 7.144 h 0.801 c 0.495,0 0.877,0.175 0.877,0.706 0,0.364 -0.189,0.582 -0.477,0.68 l 0.568,0.993 z m -0.873,-1.266 h 0.335 c 0.327,0 0.502,-0.138 0.502,-0.408 0,-0.273 -0.175,-0.367 -0.502,-0.367 h -0.335 z m 0.395,2.34 c -1.268,0 -2.299,-1.031 -2.299,-2.299 0,-1.268 1.031,-2.299 2.299,-2.299 1.268,0 2.299,1.031 2.299,2.299 0,1.268 -1.032,2.299 -2.299,2.299 z m 0,-4.215 c -1.056,0 -1.916,0.859 -1.916,1.916 0,1.057 0.859,1.916 1.916,1.916 1.057,0 1.916,-0.859 1.916,-1.916 0,-1.057 -0.86,-1.916 -1.916,-1.916 z"></path><g><g><path fill="#00cccc" d="m 17.947,10.141 c 0.274,0.158 0.256,0.377 -0.041,0.487 L 0.542,17.061 C 0.357,17.153 0.133,17.078 0.041,16.893 0.009,16.829 -0.004,16.758 0.004,16.687 V 0.354 c 0,-0.316 0.224,-0.445 0.498,-0.287 z m 4.131,2.383 C 21.757,12.362 21.386,12.33 21.042,12.436 L 0.539,20.032 C 0.226,20.166 0.017,20.466 0,20.806 v 1.225 c 0.001,0.317 0.258,0.573 0.574,0.574 h 38.384 c 0.316,0 0.351,-0.129 0.077,-0.285 z"></path></g><g><path fill="#00cccc" d="M 0.501,47.932 C 0.227,48.09 0.003,47.96 0.003,47.645 V 31.312 c -0.008,-0.071 0.005,-0.143 0.037,-0.206 0.092,-0.185 0.317,-0.26 0.501,-0.168 l 17.364,6.433 c 0.297,0.11 0.315,0.328 0.041,0.487 z"></path><path fill="#00cccc" d="m 39.035,25.677 c 0.274,-0.155 0.239,-0.285 -0.077,-0.285 H 0.575 C 0.258,25.393 0.002,25.65 0.001,25.966 v 1.225 c 0.017,0.34 0.226,0.64 0.539,0.774 l 20.503,7.596 c 0.344,0.106 0.715,0.074 1.036,-0.088 z"></path></g></g></g></svg>